#N canvas 9 6 505 1016 10;
#N canvas 895 575 347 302 allpass 0;
#X obj 22 15 inlet~;
#X obj 22 183 outlet~;
#X obj 22 114 biquad~ f 0 f 1 0;
#X text 30 137 y(n) = bx(n) + x(n-1) + by(n-1);
#X obj 94 13 inlet;
#X floatatom 94 41 6 0 0 0 - - -, f 6;
#X connect 0 0 2 0;
#X connect 2 0 1 0;
#X connect 4 0 5 0;
#X connect 5 0 2 0;
#X restore 98 486 pd allpass;
#X obj 98 428 +~;
#N canvas 526 579 358 292 lowpass 0;
#X obj 24 191 outlet~;
#X obj 24 18 inlet~;
#X obj 24 111 biquad~ 0 0 0.5 0.5 0;
#X text 32 133 y(n) = 0.5x(n) + 0.5x(n-1);
#X connect 1 0 2 0;
#X connect 2 0 0 0;
#X restore 98 458 pd lowpass;
#X obj 98 245 noise~;
#X obj 98 304 *~;
#X obj 146 246 tgl 15 0 empty empty empty 17 7 0 10 -262144 -1 -1 1
1;
#N canvas 1331 1 326 314 pulser 0;
#X obj 122 8 inlet;
#X obj 122 211 outlet;
#X msg 172 161 0;
#X obj 122 65 bng 15 250 50 0 empty empty empty 17 7 0 10 -262144 -1
-1;
#X msg 122 131 0.1;
#X obj 172 123 del 20;
#X obj 205 86 hsl 70 15 1 50 0 0 empty empty delay\ (noise) -2 -8 0
10 -262144 -1 -1 0 1;
#X obj 122 42 metro 500;
#X connect 0 0 7 0;
#X connect 2 0 1 0;
#X connect 3 0 4 0;
#X connect 3 0 5 0;
#X connect 4 0 1 0;
#X connect 5 0 2 0;
#X connect 6 0 5 1;
#X connect 7 0 3 0;
#X restore 113 274 pd pulser;
#X obj 98 535 dac~;
#N canvas 1294 309 371 669 convert 0;
#X obj 181 20 inlet;
#X obj 91 538 outlet;
#X obj 209 541 outlet;
#X obj 105 125 samplerate~;
#X obj 166 159 /;
#X obj 166 185 - 0.5;
#X floatatom 166 212 7 0 0 0 - - -, f 7;
#X obj 147 48 bng 15 250 50 0 empty empty empty 17 7 0 10 -262144 -1
-1;
#X obj 147 90 del;
#X floatatom 181 98 5 0 0 0 - - -, f 5;
#X floatatom 180 265 5 0 0 0 - - -, f 5;
#X obj 180 240 int;
#X floatatom 166 365 6 0 0 0 - - -, f 6;
#X obj 166 322 -, f 1;
#X obj 90 321 /;
#X obj 151 426 -;
#X obj 224 421 +;
#X msg 224 366 1;
#X obj 209 466 /;
#X floatatom 209 503 6 0 0 0 - - -, f 6;
#X text 224 265 D [samples];
#X text 150 365 d;
#X text 194 502 b;
#X obj 91 473 * 1000;
#X text 220 20 pitch (frequency);
#X text 48 505 D [ms];
#X floatatom 91 504 5 0 0 0 - - -, f 5;
#X connect 0 0 9 0;
#X connect 0 0 7 0;
#X connect 3 0 4 0;
#X connect 3 0 14 1;
#X connect 4 0 5 0;
#X connect 5 0 6 0;
#X connect 6 0 11 0;
#X connect 6 0 13 0;
#X connect 7 0 8 0;
#X connect 7 0 9 0;
#X connect 8 0 3 0;
#X connect 9 0 4 1;
#X connect 10 0 13 1;
#X connect 10 0 14 0;
#X connect 11 0 10 0;
#X connect 12 0 15 1;
#X connect 12 0 16 1;
#X connect 13 0 12 0;
#X connect 13 0 17 0;
#X connect 14 0 23 0;
#X connect 15 0 18 0;
#X connect 16 0 18 1;
#X connect 17 0 16 0;
#X connect 17 0 15 0;
#X connect 18 0 19 0;
#X connect 19 0 2 0;
#X connect 23 0 26 0;
#X connect 26 0 1 0;
#X restore 174 304 pd convert;
#X floatatom 113 345 5 0 0 0 - - -, f 5;
#X floatatom 231 445 5 0 0 0 - - -, f 5;
#X obj 113 401 *~ 0.99;
#N canvas 536 1 779 556 sequencer 0;
#X obj 75 200 inlet;
#X obj 117 461 outlet;
#X obj 118 110 float;
#X obj 162 109 + 1;
#X obj 118 26 loadbang;
#X obj 118 53 tgl 15 0 empty empty empty 17 7 0 10 -262144 -1 -1 1
1;
#X obj 118 169 hradio 15 0 0 32 empty empty empty 0 -8 0 10 -262144
-1 -1 28;
#X floatatom 117 428 5 0 0 0 - - -, f 5;
#X floatatom 117 313 2 0 0 0 - - -, f 2;
#X floatatom 136 313 2 0 0 0 - - -, f 2;
#X floatatom 155 313 2 0 0 0 - - -, f 2;
#X floatatom 175 314 2 0 0 0 - - -, f 2;
#X obj 118 143 mod 32;
#X obj 126 235 unpack f f f f f f f f f f f f f f f f f f f f f f f
f f f f f f f f f, f 101;
#X floatatom 194 314 2 0 0 0 - - -, f 2;
#X floatatom 214 314 2 0 0 0 - - -, f 2;
#X floatatom 233 314 2 0 0 0 - - -, f 2;
#X floatatom 252 315 2 0 0 0 - - -, f 2;
#X floatatom 272 316 2 0 0 0 - - -, f 2;
#X floatatom 291 316 2 0 0 0 - - -, f 2;
#X floatatom 311 317 2 0 0 0 - - -, f 2;
#X floatatom 330 317 2 0 0 0 - - -, f 2;
#X floatatom 349 317 2 0 0 0 - - -, f 2;
#X floatatom 369 317 2 0 0 0 - - -, f 2;
#X floatatom 388 317 2 0 0 0 - - -, f 2;
#X floatatom 408 318 2 0 0 0 - - -, f 2;
#X floatatom 427 317 2 0 0 0 - - -, f 2;
#X floatatom 446 317 2 0 0 0 - - -, f 2;
#X floatatom 466 317 2 0 0 0 - - -, f 2;
#X floatatom 485 318 2 0 0 0 - - -, f 2;
#X floatatom 505 318 2 0 0 0 - - -, f 2;
#X floatatom 524 318 2 0 0 0 - - -, f 2;
#X floatatom 543 318 2 0 0 0 - - -, f 2;
#X floatatom 563 318 2 0 0 0 - - -, f 2;
#X floatatom 582 319 2 0 0 0 - - -, f 2;
#X floatatom 602 319 2 0 0 0 - - -, f 2;
#X floatatom 621 319 2 0 0 0 - - -, f 2;
#X floatatom 640 320 2 0 0 0 - - -, f 2;
#X floatatom 660 319 2 0 0 0 - - -, f 2;
#X floatatom 679 319 2 0 0 0 - - -, f 2;
#X floatatom 699 320 2 0 0 0 - - -, f 2;
#X floatatom 718 320 2 0 0 0 - - -, f 2;
#X obj 117 199 select 0 1 2 3 4 5 6 7 8 9 10 11 12 13 14 15 16 17 18
19 20 21 22 23 24 25 26 27 28 29 30 31, f 104;
#X obj 118 76 metro 500;
#X connect 0 0 13 0;
#X connect 2 0 3 0;
#X connect 2 0 12 0;
#X connect 3 0 2 1;
#X connect 4 0 5 0;
#X connect 5 0 43 0;
#X connect 6 0 42 0;
#X connect 7 0 1 0;
#X connect 8 0 7 0;
#X connect 9 0 7 0;
#X connect 10 0 7 0;
#X connect 11 0 7 0;
#X connect 12 0 6 0;
#X connect 13 0 8 0;
#X connect 13 1 9 0;
#X connect 13 2 10 0;
#X connect 13 3 11 0;
#X connect 13 4 14 0;
#X connect 13 5 15 0;
#X connect 13 6 16 0;
#X connect 13 7 17 0;
#X connect 13 8 18 0;
#X connect 13 9 19 0;
#X connect 13 10 20 0;
#X connect 13 11 21 0;
#X connect 13 12 22 0;
#X connect 13 13 23 0;
#X connect 13 14 24 0;
#X connect 13 15 25 0;
#X connect 13 16 26 0;
#X connect 13 17 27 0;
#X connect 13 18 28 0;
#X connect 13 19 29 0;
#X connect 13 20 30 0;
#X connect 13 21 31 0;
#X connect 13 22 32 0;
#X connect 13 23 33 0;
#X connect 13 24 34 0;
#X connect 13 25 35 0;
#X connect 13 26 36 0;
#X connect 13 27 37 0;
#X connect 13 28 38 0;
#X connect 13 29 39 0;
#X connect 13 30 40 0;
#X connect 13 31 41 0;
#X connect 14 0 7 0;
#X connect 15 0 7 0;
#X connect 16 0 7 0;
#X connect 17 0 7 0;
#X connect 18 0 7 0;
#X connect 19 0 7 0;
#X connect 20 0 7 0;
#X connect 21 0 7 0;
#X connect 22 0 7 0;
#X connect 23 0 7 0;
#X connect 24 0 7 0;
#X connect 25 0 7 0;
#X connect 26 0 7 0;
#X connect 27 0 7 0;
#X connect 28 0 7 0;
#X connect 29 0 7 0;
#X connect 30 0 7 0;
#X connect 31 0 7 0;
#X connect 32 0 7 0;
#X connect 33 0 7 0;
#X connect 34 0 7 0;
#X connect 35 0 7 0;
#X connect 36 0 7 0;
#X connect 37 0 7 0;
#X connect 38 0 7 0;
#X connect 39 0 7 0;
#X connect 40 0 7 0;
#X connect 41 0 7 0;
#X connect 42 0 8 0;
#X connect 42 1 9 0;
#X connect 42 2 10 0;
#X connect 42 3 11 0;
#X connect 42 4 14 0;
#X connect 42 5 15 0;
#X connect 42 6 16 0;
#X connect 42 7 17 0;
#X connect 42 8 18 0;
#X connect 42 9 19 0;
#X connect 42 10 20 0;
#X connect 42 11 21 0;
#X connect 42 12 22 0;
#X connect 42 13 23 0;
#X connect 42 14 24 0;
#X connect 42 15 25 0;
#X connect 42 16 26 0;
#X connect 42 17 27 0;
#X connect 42 18 28 0;
#X connect 42 19 29 0;
#X connect 42 20 30 0;
#X connect 42 21 31 0;
#X connect 42 22 32 0;
#X connect 42 23 33 0;
#X connect 42 24 34 0;
#X connect 42 25 35 0;
#X connect 42 26 36 0;
#X connect 42 27 37 0;
#X connect 42 28 38 0;
#X connect 42 29 39 0;
#X connect 42 30 40 0;
#X connect 42 31 41 0;
#X connect 43 0 2 0;
#X restore 174 245 pd sequencer;
#X obj 146 150 loadbang;
#X obj 113 373 delread~ feedback1;
#X obj 169 535 delwrite~ feedback1;
#X msg 174 181 130.81 196 622.25 130.81 622.25 587.33 523.25 196 207.65
130.81 415.31 130.81 415.31 466.16 415.31 392 155.56 196 392 196 349.23
392 196 369.99 146.83 185 293.67 185 261.63 185 261.63 146.83, f 49
;
#X connect 0 0 7 0;
#X connect 0 0 7 1;
#X connect 0 0 15 0;
#X connect 1 0 2 0;
#X connect 2 0 0 0;
#X connect 3 0 4 0;
#X connect 4 0 1 0;
#X connect 5 0 6 0;
#X connect 6 0 4 1;
#X connect 8 0 9 0;
#X connect 8 1 10 0;
#X connect 9 0 14 0;
#X connect 10 0 0 1;
#X connect 11 0 1 1;
#X connect 12 0 8 0;
#X connect 13 0 5 0;
#X connect 13 0 16 0;
#X connect 14 0 11 0;
#X connect 16 0 12 0;
